# xmcd
#
# Track frame offsets: 
#        150
#        19909
#        35455
#        49222
#        65513
#        88702
#        107017
#        121066
#        135003
#        150472
#
# Disc length: 2193 seconds
#
# Revision: 0
# Processed by: cddbd v1.5.1PL0 Copyright (c) Steve Scherf et al.
# Submitted via: ExactAudioCopy v0.95b3
#
DISCID=75088f0a
DTITLE=Александр Новиков - Настоящий
DYEAR=2003
DGENRE=Chanson
TTITLE0=Освободился
TTITLE1=Девочка мне писала
TTITLE2=Голубок
TTITLE3=Я тебя люблю
TTITLE4=Тик-так
TTITLE5=Точно помню
TTITLE6=Колокольня
TTITLE7=Рожи
TTITLE8=Фальшивомонетчик
TTITLE9=Мама-джан
EXTD=
EXTT0=
EXTT1=
EXTT2=
EXTT3=
EXTT4=
EXTT5=
EXTT6=
EXTT7=
EXTT8=
EXTT9=
PLAYORDER=
